<svg xmlns="http://www.w3.org/2000/svg" width="263.419" height="110.228" viewBox="0 0 263.419 110.228"><defs><style>.a{fill:#3e4094;}.a,.b,.c,.d,.e{fill-rule:evenodd;}.b{fill:#ec3237;}.c{fill:#f48534;}.d{fill:#76bb50;}.e{fill:#373435;}</style></defs><path class="a" d="M831.98,165.313H820.468v-1.536c1.626-.111,3.571.052,3.571-1.935V144.7c0-1.788-2.338-2.111-3.967-2.214V141.3H831.98v1.182a5.9,5.9,0,0,0-.81.127,9.779,9.779,0,0,0-1.4.272,1.459,1.459,0,0,0-.947.648,2.063,2.063,0,0,0-.242,1v17.121a3.621,3.621,0,0,0,.267,1.4,1.771,1.771,0,0,0,.921.678,8.908,8.908,0,0,0,1.278.291,4.89,4.89,0,0,0,.93.176Z" transform="translate(-601.599 -91.252)"/><path class="a" d="M834.189,153.965c-.3.034-.7.087-1.2.157s-.051.171-.359.309a1.55,1.55,0,0,0-.8.706,2.307,2.307,0,0,0-.231,1.073v1.84c0,1.332.009,4.112.026,4.578s.04.854.064,1.148a28.1,28.1,0,0,1-4.68,1.677,42.1,42.1,0,0,1-6.611.535c-7.669,0-13.445-5.773-13.445-12.329,0-6.79,5.069-12.668,13.638-12.537a25.036,25.036,0,0,1,5.02.484,11.871,11.871,0,0,1,2.584,1.166c.368-.535.735-.852,1.1-1.384.3-.543,1.385-.565,1.486-.012q.09,3.756.171,7.512c-.111.488-1.308.3-1.314-.18a7.543,7.543,0,0,0-5.055-5.517c-7.455-.9-11.9,1.273-12.15,10.3.179,5.492,1.787,9.859,8.587,10.87a10.116,10.116,0,0,0,3.847-.45,5.557,5.557,0,0,0,1.906-.952,10.859,10.859,0,0,0,.16-1.749c.006-.587.011-2.968.011-3.38v-1.3a3.38,3.38,0,0,0-.216-1.241,1.427,1.427,0,0,0-.883-.791,3.706,3.706,0,0,0-1.269-.377c-.705-.081-.524-.135-.925-.157v-1.219h10.53Z" transform="translate(-616.517 -91.589)"/><path class="a" d="M807.045,143.19h-2.627v10.083h1.9c5.121.561,6.553-2.508,6.119-5.4-.357-2.4-1.325-4.679-5.394-4.679m1.171,11.647h-3.8v7.258a2.351,2.351,0,0,0,.209,1.025,1.468,1.468,0,0,0,.891.672,6.328,6.328,0,0,0,1.182.216c.568.065,1.081.109,1.552.121v1.182H796.487v-1.182c.3-.024.731-.067,1.3-.121a4.885,4.885,0,0,0,1.184-.216,1.585,1.585,0,0,0,.806-.632,2.028,2.028,0,0,0,.254-1.065v-17.42a2.82,2.82,0,0,0-.19-1.053,1.292,1.292,0,0,0-.87-.7,8.5,8.5,0,0,0-1.406-.307c-.47-.063-.87-.1-1.2-.127V141.3h12.49a9.954,9.954,0,0,1,5.991,1.592C819.495,146.321,820.01,154.836,808.217,154.836Z" transform="translate(-628.568 -91.252)"/><path class="a" d="M813.751,165.3H802.584v-1.215c.423-.01.184-.055.846-.119a4.3,4.3,0,0,0,1.372-.28,2.206,2.206,0,0,0,.846-.726,1.851,1.851,0,0,0,.273-1.025V147.488h-.28l-9.34,17.5H795.05l-8.912-16.7H785.9v9.843a17.171,17.171,0,0,0-.028,3.117,4.951,4.951,0,0,0,.883,2.056,1.786,1.786,0,0,0,1.126.668,11.253,11.253,0,0,0,1.673.335v1.019h-9.633v-1.289a15.228,15.228,0,0,0,1.725-.252c.616-.121.795-.5,1.1-.777.43-.379.393-.815.474-1.463a31.327,31.327,0,0,0,.081-3.23V146.2a5.813,5.813,0,0,0-.28-1.949,2.421,2.421,0,0,0-.648-1.082,3.765,3.765,0,0,0-1.411-.664,9.333,9.333,0,0,0-1.812-.252V141.3h8.342l9.66,17.157,8.432-17.157h8.472v1.182a10.781,10.781,0,0,0-1.329.149,9.089,9.089,0,0,0-1.182.25,1.344,1.344,0,0,0-.857.664,2.347,2.347,0,0,0-.222,1.019V161.9a1.991,1.991,0,0,0,.222.983,1.829,1.829,0,0,0,.857.7,1.933,1.933,0,0,0,.842.3,10.831,10.831,0,0,0,1.362.159Z" transform="translate(-648.136 -91.252)"/><path class="a" d="M749.169,146.884c-3.849-5.085-3.18-8.483-.1-11.489a10.164,10.164,0,0,1,13.04,1.225c-2.255-6.54-9.725-9.032-16.645-4.52-6.448,6.632-2.507,12.206,3.711,14.784" transform="translate(-690.212 -102.952)"/><path class="b" d="M781.064,145.231c3.849-5.085,3.18-8.485.1-11.491a10.16,10.16,0,0,0-13.037,1.225c2.257-6.54,9.724-9.032,16.643-4.522,6.452,6.637,2.507,12.208-3.708,14.788" transform="translate(-660.674 -104.637)"/><path class="c" d="M769.05,116.5l4.525,7.709,9.209,1.045-6.625,5.562,1.615,8.6-8.553-3.928-11.469,4.234,1.617-8.295-6.8-5.868,12.127-1.5Z" transform="translate(-678.366 -116.499)"/><path class="b" d="M809.686,146.976c-20.877,19.371-53.671,2.435-41.179-20.41-10.641,5.924-13.275,25.606,1.979,33.177-5.089,5.026-10.719,12.674-3.116,29.6-.455-13.489,1.244-23.314,14.762-23.8,8.327.2,13.984,7.4,11.477,22.182,6.241-6.963,5.283-16.6.083-25.251,6.826-1.965,12.86-7.377,15.993-15.495" transform="translate(-670.163 -106.253)"/><path class="a" d="M736.09,148.176c20.875,19.373,53.5.936,41.01-21.907,9.968,5.922,16.312,16.465,5.275,30.929,9.81,5.476,15.824,14.256,8.3,31.038.77-12.224-.528-23.106-16.914-21.645-8.662,1.548-13.311,7.851-10.8,22.634-5.23-7.115-6.632-15.1-2.445-24.355-13.236.583-22.473-8.275-24.427-16.693" transform="translate(-697.11 -106.555)"/><path class="d" d="M722.586,173.418l50.984-9.443-.675.107-.748.232-.254.085-.246.1-.273.159-.566-.012-.534.182a.287.287,0,0,0-.327,0,1.6,1.6,0,0,1-.453.147h-.658l-.286-.036-1.19-.036h-.37l-.985.182-1.481.256-1.4-.145-.573-.111-.126-.22-.205-.184-.37-.291-.492-.036h-.943l-.372.109-.286.218-.863.769-.165.184-.9.036-.329-.256-.7-.109h-1.067l-1.1-.125-1.661.492-1.188.563-1.1.28-1.344.28h-1.347l-1.265.283.318.42.473.424c.239.42-.552.7-.552.7s.079-.283-.791,0-1.9.49-1.9.49l-1.188.353-1.028.21-.554.212-.712-.353-.4-.28-.791-.071-.949-.141-.712.424a4.466,4.466,0,0,0-.633,1.263l-.712.773h-.633l-.635-.28-.314-.561-.4-.212-.472-.21-.633.139-.712.351-.474.283.314.563a2.4,2.4,0,0,1,.24.771l-.475.281-.632.424-.87.349-.791.282h-1.03l-.552.422a3.636,3.636,0,0,1-.318.773h-.393l-1.188.071-.633.069-1.186.563-.4.492-.71.561-1.582.422h-.477l-1.344.282-1.107.212h-1.347l.872-.845v-.561l.237-.563.079-.983.472-.351a1.42,1.42,0,0,1,.714-.212,9.359,9.359,0,0,0,.949-.071,1.1,1.1,0,0,0,.633-.071,1.776,1.776,0,0,0,.553-.28l.158-.351Zm50.972-9.453-51,9.478-.494-.8-.288-.474.329-.4.537-.147,1.186-.472,1.03-.293.9-.585.78-.365.41-.583.494-.365.41-.363.37-.22h.451l.329.22.658.327.615-.073.451-.145.494-.184h1.026l1.19-.218.562-.6.267-.285.239-.165.483-.406.506-.26s.534-.214.669-.262.613-.143.613-.143a5.125,5.125,0,0,1,.91-.165,5.4,5.4,0,0,0,.96-.19,2.025,2.025,0,0,1,.722-.311,7.859,7.859,0,0,0,1.041-.285,7.816,7.816,0,0,1,1.124-.357c.265-.022.718-.26,1.308-.4a13.292,13.292,0,0,0,1.28-.4l1.182-.375a2.459,2.459,0,0,1,.479-.274,5.64,5.64,0,0,1,1.24-.4,7.821,7.821,0,0,0,1.039-.2,9.447,9.447,0,0,1,1.24-.149c.479,0,.958-.1,1.351-.1a5.4,5.4,0,0,0,1.265-.274,5.34,5.34,0,0,1,.987-.226c.308-.024,1.1-.125,1.1-.125s.645-.149.814-.176.733-.224.93-.25.618-.2.817-.224a8.4,8.4,0,0,1,.842-.174,11.846,11.846,0,0,0,1.381-.028c.169-.048,1.011-.248,1.152-.272a9.823,9.823,0,0,1,1.184-.25c.252,0,1.6-.176,1.6-.176a.542.542,0,0,1,.338-.3,4.156,4.156,0,0,0,.648-.3l.393-.077.87.065s.823-.046.981-.046,1.225,0,1.5-.016.752-.093.838-.093a1.165,1.165,0,0,0,.333-.155s0-.264.088-.341a1.817,1.817,0,0,1,.387-.234,2.064,2.064,0,0,1,.487-.17c.1,0,1.419-.095,1.419-.095l.594-.03c.3-.016.8-.046,1.013-.046s.481-.024.742-.006.3.065.412.014a6.221,6.221,0,0,1,.6-.182c.244-.067.357-.115.6-.165a6.75,6.75,0,0,0,.75-.25,2.376,2.376,0,0,1,.618-.182,7.659,7.659,0,0,1,.8-.05h.673c.111,0,.8-.032,1.011-.032s.953-.034.953-.034a13.024,13.024,0,0,1,1.515-.145h2.321c.321,0,1.62-.109,1.77-.109s1.125-.069,1.748-.111,1.669-.044,1.819-.044,1.744-.067,1.971-.067h2.319s1.1-.087,1.3-.087,1.039-.089,1.039-.089l.5-.061,1.037-.119s1.372.03,1.573.03,2.041-.059,2.041-.059.737-.03,1.137-.03,1.708.178,1.975.178h1l.434-.208s.6-.238.8-.327.6-.3.6-.3l.571.149.434.329h1.673c.3,0,1-.032,1-.032l.376-.289.434-.24.271-.194,1.353-.434.921-.143h.7l.975.24s.865.434,1.137.626a3.3,3.3,0,0,0,1.03.482,6.976,6.976,0,0,0,1.355.289h2.813l1.626-.1s.109-.24.812,0,.7.337,1.19.337h1.353a7.692,7.692,0,0,0,1.083-.048c.434-.048,1.028-.095,1.028-.095s.7.095,1.19.19,1.409.626,1.843.771a19.829,19.829,0,0,0,2.111.339l.919.141.434-.289.327-.24.325-.192h.592l1.032.385,1.353.577s1.081.24,1.353.288,1.462.095,1.786.192a4.6,4.6,0,0,0,1.246.289c.434,0,1.571.145,1.571.145l2.563.264H848.9a2.525,2.525,0,0,1,1.163,0,12.892,12.892,0,0,0,1.879.238,7.507,7.507,0,0,1,1.879.238c.714.238,1.7.954,2.415.954s1.787.079,1.787.079l1.7.636.893.476a2.446,2.446,0,0,1,1.432.4,4.119,4.119,0,0,0,1.342.555L865,163.19l1.073.238s.536.159,1.252.319.626-.079,1.163.238.359.476,1.432.793a10.992,10.992,0,0,0,1.966.4,15.244,15.244,0,0,0,1.7.238c.447,0,2.058.4,2.772.476s1.7.079,1.7.079l.983.159,1.342.081s.806.238,1.43.4a12.992,12.992,0,0,0,1.7.236l1.252.081a1.423,1.423,0,0,1,.983.079c.536.24,2.772,1.033,2.772,1.033l1.879.636,1.789.476s-.536,0,.806-.079a7.977,7.977,0,0,1,1.7,0l2.056.4,1.075.159,1.16.4,2.637.89a1.772,1.772,0,0,0,.836.535c.477.1.477.212.9.317s1.017.212,1.017.212a2.833,2.833,0,0,1,1.673.159,6.524,6.524,0,0,0,2.451.745,6.545,6.545,0,0,1,1.494.371l1.135.426s.838.159,1.494.212a3.673,3.673,0,0,1,1.913.371,12.783,12.783,0,0,0,2.092.69c.838.264.958.319,1.614.531a4.681,4.681,0,0,0,1.675.214c.6,0,.956.052,1.374.052s2.749.319,2.749.319l1.494.1,2.272.745,2.212.1,1.793.852,1.319.246,1.21.216,2.233.644,1.691.482,1.812.323,1.145.214,1.872.214.847.268.725.323,1.026.7s.421.214.784.375a7.1,7.1,0,0,0,1.21.375,8.995,8.995,0,0,0,1.509.268l1.026.268,1.086.321.908.216.361-.055.06-.268-.3-.214-.722-.107-.425-.323.485-.323h.6l.483.054.785.323.361.375.3.375.906-.107a1.251,1.251,0,0,1,.724.052l.543.161.966.375.545.161,1.389-.109.784.109,1.571.375.543.107H963.5l1.389.214.646.137h.571l1.235.143a6.876,6.876,0,0,0,.757.113h.983l.761.026a3.508,3.508,0,0,1,.538.085,5.425,5.425,0,0,1,.729.226l.887.339.855.508a.974.974,0,0,1,.409.307,7.344,7.344,0,0,1,.35.706l-.064.17a2.5,2.5,0,0,1-.474,0,4.554,4.554,0,0,1-.6-.17,3.366,3.366,0,0,0-.568-.226c-.284-.056-.318-.167-.7-.2s-.919-.087-.919-.087.255-.139-.474-.113-1.267.058-1.614.058-.823.026-1.045.026-1.868-.2-1.868-.2l-1.3-.367-.825-.113s-.413-.139-.695-.2-.6-.167-.825-.2-1.043-.085-1.265-.141-1.107-.339-1.107-.339l-.887-.085a4.072,4.072,0,0,0-1.144.141,1.845,1.845,0,0,1-.695.141l-.41-.283s-.16-.139-.319-.282l-.316-.278-.72-.163-.494-.032s-.43-.03-.641-.03-.885.188-1.1.22a12.587,12.587,0,0,1-1.278-.063l-1.347-.157h-.391c-.353,0-.639.03-.639.03a2.486,2.486,0,0,1-.6.095h-1.028l-.744-.19-.853-.41-.532-.347-.71-.22-.744-.222-.885-.283-1.278-.287-1.135-.5-1.562-.032-.71-.315-.953-.252-.573-.287a3.085,3.085,0,0,0-.714-.19c-.323-.032-.787-.129-.787-.129l-.536-.252-.5-.065h-.286v.317l.216.065.391.349.286.319.359.254.034.347v.416l-.177.19-.4.03-.318-.03-.325-.159-.284-.254-.323-.412-.179-.381-.248-.414-.286-.285-.18-.159-.321-.127h-.286l-.752.063h-3.644l-.789.065-1.214.222-.464.317-.071-.22.071-.383.179-.252.107-.192-.073-.287-.707-.486-.853-.264-.59-.4a1.564,1.564,0,0,0-.41-.3c-.259-.131-.37-.2-.37-.2l-.481-.2-.517-.262a1.434,1.434,0,0,0-.442-.034,4.184,4.184,0,0,1-.705-.065l-.556-.034-.481-.032h-.186l-.222.067a1.283,1.283,0,0,0-.147.46l.147.331.3.23.37.23.444.264.259.131.261.561.075.2h-.447l-.37-.133a.841.841,0,0,1-.517-.131c-.259-.165-.519-.3-.519-.3l-.556-.2-.256-.131-.261-.2-.15-.232-.147-.262v-.232l-.036-.2-.15-.2-.7-.2-.445-.2-.444-.133-.853-.165-.592-.2-.851-.166-.519-.165-.554-.262-.669-.133-.37-.2-.887-.163-.74-.232-.669-.2-.7-.133-1-.1-.776-.23-.74-.2-.7-.034-.752.24-.214.024-.423.212-.53.143-.767.093s-.66-.048-.823-.073-.874-.093-.874-.093l-.553-.117-.319-.141-.476-.285-.346-.046-.342-.024-.212.048-.742.283-.265.117-.53.141-.214.024-.474-.024-.5-.046-.423-.117-.451-.143-.579-.563-.5-.331-.132-.119-.318-.141-.212-.141-.291-.141-.214-.024-.778.188-.169.018h-1.056l-.128-.018-.445-.131-.361-.115h-.421l-.276-.208-.231-.131-.445-.208-.3-.224a4.021,4.021,0,0,0-.551-.321,6.431,6.431,0,0,0-.782-.244h-.274l-.506-.036-.742-.059-.423-.055-.318-.133-.316-.095-.979-.325-.537-.184-.7-.258s-.453.036-.782.036-.579.111-.868.111-.536.073-.784.073h-2.184l-.534-.036s.041-.036-.372-.147-.908-.254-.908-.254l-1.28-.369s.126-.145-.41-.4-1.114-.514-1.114-.514l-.577-.295-.66-.4-.74-.367-.908-.145-.992-.111-2.49.349-.359-.081-.983.2h-2.056l-.449-.159-.626-.079-.4-.079-.447-.159-.224-.2-.269-.2-.267-.278-.045-.476-.224-.357-.312-.438-.4-.555-.4-.357-.492-.359-.759-.2-1.075-.081s-1.026-.117-1.25-.117-1.565-.28-1.565-.28l-1.387-.079-.88-.355-.316-.083-.361-.24-.361-.28-.408-.2-.543-.2h-.316v.24l.271.484.361.482.227.442.316.323.453.159a4.324,4.324,0,0,1,.586.323c.229.161.184.323.453.363s.588.04.814.079.363-.038.633.083.316.161.588.281a3.752,3.752,0,0,0,.408.161s.043.119-.271.119h-.68s-.045.04-.453,0-.947-.119-.947-.119a4.7,4.7,0,0,0-.949-.121h-1.4l-.949-.04-.5-.081-.678-.2-.274-.161-.5-.242-.5-.2-.227-.119-.543-.283a5.207,5.207,0,0,1-.543-.4c-.224-.2-.543-.525-.543-.525l-.406-.24-.906-.283-1.128-.04-.769-.242H838.27l-.18.2-.045.242a2.075,2.075,0,0,0,.677.24l.769.363s.316.161.588.282.5.161.633.361.406.242.135.323a1.979,1.979,0,0,1-.5.079l-.543-.159-.361-.161-.543-.2-.453-.2-.271-.119-1.084-.2-.893.234a10.131,10.131,0,0,0-1.312,0,12.133,12.133,0,0,1-1.609-.052l-.359-.212-.357-.371a3.269,3.269,0,0,0-.475-.69l-.3-.317-.537-.424-.539-.21-.835-.214h-1.248l-1.611-.052-1.729-.266a2.682,2.682,0,0,0-1.195-.05,9.753,9.753,0,0,1-1.547.369l-.836-.052-1.193.1-.893-.052-.893-.159-1.195-.159-.893-.369-1.252-.159-.716-.157h-.716l-1.011.157h-2.266c-.3,0-1.823.347-1.823.347h-1.135l-1.34.228s-1.032-.137-1.5-.137-.774.046-1.5.046-1.96.184-2.58.184h-2.27s-1.5.139-2.114.23-1.342.137-1.6.184-1.344.414-1.344.414l-1.438-.192h-2.627l-.349-.222-.5-.4-.447-.133h-2.973l-.3.309.5.486-.1.4h-.25c-.393,0-1.24.042-1.24.042l-.393-.176-.3-.353-.248-.178h-.943l-.4.531-.246.176h-3.024a2.045,2.045,0,0,0-.793.353,16.51,16.51,0,0,1-1.59.708,4.042,4.042,0,0,1-1.238.264Z" transform="translate(-717.852 -77.048)"/><path class="e" d="M760.18,167.256c2.21-1.5,4.3-3.388,6.2-8.311.744-2.526-.524-3.176-2.558-.426a16.035,16.035,0,0,0-3.644,8.737m10.173.773c2.212-1.5,4.3-3.388,6.2-8.311.744-2.526-.524-3.176-2.556-.428A15.993,15.993,0,0,0,770.353,168.029Zm-10.3.375c2.817-1.469,5.471-3.961,7.553-10.1.616-2.764-1.349-3.632-4.05-1.289A15.557,15.557,0,0,0,759.1,171.9c1.936,5.384,6.632,1.747,6.063-2.337.893-.024,2.163-.024,3.058-.048.2,4.233,1.317,6.219,4.473,5.831-1.688-.749-3.172-2.268-2.578-5.712a18.476,18.476,0,0,0,7.8-10.531c.59-3.019-1.814-3.824-4.21-1.554a21.2,21.2,0,0,0-5.294,10.787,32.793,32.793,0,0,1-3.291-.032c-1.509-1.065-1.975,1.12-.526,1.187C763.743,175.475,759.676,174.516,760.05,168.4Z" transform="translate(-671.415 -76.639)"/><path class="e" d="M769.844,164.163c1.539-1.78,1.455-2.7.077-1.6a6.442,6.442,0,0,0-1.327,1.447c-.41.714.5,1.029,1.25.149m-1.667,1.685a4.856,4.856,0,0,0,4.1-3.319c.464-1.852-1.274-2.438-2.977-1.12-3.911,3.565-4.084,6.608-1.735,7.71a6.131,6.131,0,0,0,4.527-.632c-.171-.172-.235-.277-.408-.446C768.211,169.113,767.138,168.094,768.177,165.848Z" transform="translate(-663.064 -71.516)"/><path class="e" d="M782.8,169.483c1.7-1.8,3.054-1.57,1.994.619a7.044,7.044,0,0,1-2.248,2.506c-1.532.7-1.4-1.265.254-3.126m7.337-9.77c.833-3.1-.246-3.416-1.517-.942-2.522,6.09-2.629,9.488-1.37,7.615A23.918,23.918,0,0,0,790.138,159.713Zm-19.712,9.95c.539-1.846,1.6-1.164,1.468-.121l-.316,2.286c.767-.734,1.3-1.435,2.06-2.169,1.12-1.086,2.52-.753,2.445.567.128,3.313,1.357,3.785,3.841,1.487,1.06-3.065,2.96-4.34,5.307-4.455.274-3.739.4-5.854,2.261-9.248,1.536-2.881,4.627-3.469,4.116,1.277-.4,2.982-3.129,6.7-4.941,9.078-.631,2.254-.13,4.255.351,6.261l-1.011.125a7.905,7.905,0,0,1-.923-3.245c-2.449,3.039-4.309,3.5-5,1.306-1.218.732-2.715,2.294-3.928,1.14A3.71,3.71,0,0,1,775,171.809c-.137-.841-.705-1.193-1.661-.006l-2.212,2.849c-.7.646-1.646.442-1.513-.43C769.941,172.7,770.1,171.182,770.426,169.662Z" transform="translate(-658.999 -76.517)"/><path class="e" d="M793.346,167.229l2.817-.418.009-.694h-2.543a15.9,15.9,0,0,1,2.994-8.459c.812-.621,1.319-.25,1.2.734.079.488.951.295,1.034-.161.406-1.259-.438-1.967-1.637-1.645-2.413.761-4.11,3.017-5.1,9.427l-3.255-.01-.015,1.084c1.043.03,2.088.059,3.129.087-1.09,7.581-2.761,13.775-6.5,15.031a10.5,10.5,0,0,1-3.009.268c-.053.2-.1.4-.152.6,2.706.418,5.294.258,7.3-2.676,2.432-3.356,3.11-7.629,3.727-13.17" transform="translate(-644.537 -75.777)"/><path class="e" d="M799.889,167.274l2.817-.42.007-.694h-2.543a15.934,15.934,0,0,1,2.994-8.459c.812-.619,1.319-.25,1.205.736.079.488.949.293,1.034-.163.406-1.257-.438-1.965-1.637-1.642-2.413.761-4.112,3.017-5.1,9.427l-3.255-.01-.015,1.084,3.129.085c-1.094,7.581-2.764,13.775-6.5,15.031a10.445,10.445,0,0,1-3.011.268l-.152.6c2.708.416,5.294.258,7.3-2.676,2.432-3.356,3.11-7.631,3.727-13.17" transform="translate(-637.099 -75.731)"/><path class="e" d="M786.842,166.02c.69-3.582-1.25-5.135-2.441-2.8-1.515,3.985-1.052,5.71.878,4.871a3.433,3.433,0,0,0,1.563-2.074m1.49-1.985c-.269,5.488-3.984,6.4-6,4.4-2.513-4.112,3.334-9.492,4.189-6.8.735-.309,1.62.214,2.622,1.419A.674.674,0,0,1,788.332,164.034Z" transform="translate(-645.229 -71.298)"/><path class="e" d="M838.274,165.906c.69-3.578-1.25-5.133-2.443-2.8-1.515,3.987-1.047,5.712.881,4.873a3.416,3.416,0,0,0,1.562-2.076m1.49-1.984c-.271,5.488-3.982,6.4-6,4.4-2.513-4.11,3.332-9.49,4.187-6.8.733-.309,1.62.216,2.625,1.418A.676.676,0,0,1,839.764,163.922Z" transform="translate(-586.735 -71.412)"/><path class="e" d="M814.984,169.39c1.706-1.8,3.056-1.57,2,.619a7.048,7.048,0,0,1-2.248,2.508c-1.534.7-1.4-1.267.252-3.128m7.339-9.768c.832-3.105-.248-3.418-1.517-.944-2.522,6.09-2.629,9.49-1.37,7.615A23.9,23.9,0,0,0,822.323,159.622Zm-10.115,11.99a5.557,5.557,0,0,1,5.206-4.447c.276-3.737.406-5.854,2.261-9.247,1.539-2.879,4.625-3.469,4.118,1.277-.4,2.984-3.131,6.7-4.939,9.08-.635,2.252-.135,4.255.351,6.259-.34.042-.677.085-1.015.125a7.9,7.9,0,0,1-.923-3.245c-2.447,3.041-4.307,3.5-5,1.306A3.062,3.062,0,0,1,812.208,171.612Z" transform="translate(-610.572 -76.61)"/><path class="e" d="M812.417,164.163c1.537-1.78,1.453-2.7.075-1.6a6.485,6.485,0,0,0-1.325,1.447c-.413.714.5,1.029,1.25.149m-1.669,1.685a4.856,4.856,0,0,0,4.1-3.319c.466-1.852-1.272-2.438-2.977-1.12-3.907,3.565-4.08,6.608-1.735,7.71a6.135,6.135,0,0,0,4.529-.632c-.173-.172-.235-.277-.408-.446C810.781,169.113,809.709,168.094,810.747,165.848Z" transform="translate(-614.647 -71.516)"/><path class="e" d="M798.153,163.243c.539-1.846,1.6-1.164,1.466-.121l-.314,2.286c.765-.734,1.3-1.435,2.06-2.169,1.116-1.086,2.518-.753,2.445.567.13,3.313,1.355,3.785,3.841,1.487,2.879-4.833,1.714,2.038.156,1.1-1.216.733-2.71,2.294-3.926,1.14a3.723,3.723,0,0,1-1.156-2.143c-.133-.841-.7-1.193-1.659-.006l-2.21,2.849c-.7.646-1.648.442-1.516-.43.325-1.519.488-3.041.812-4.56" transform="translate(-627.466 -70.098)"/><path class="e" d="M806.008,164.163c1.539-1.78,1.456-2.7.077-1.6a6.484,6.484,0,0,0-1.325,1.447c-.41.714.5,1.029,1.248.149m-1.667,1.685a4.856,4.856,0,0,0,4.1-3.319c.466-1.852-1.271-2.438-2.975-1.12-3.909,3.565-4.084,6.608-1.736,7.71a6.132,6.132,0,0,0,4.527-.632c-.173-.172-.235-.277-.408-.446C804.377,169.113,803.3,168.094,804.341,165.848Z" transform="translate(-621.933 -71.516)"/><path class="e" d="M837.642,162.909c.536-1.846,1.6-1.164,1.468-.121l-.318,2.286c.767-.734,1.295-1.435,2.06-2.169,1.118-1.084,2.522-.753,2.447.565.485,2.887.975,4.145,2.471,3.033.162-.145.273,1.092.158,1.1-1.071.7-1.866.6-2.558-.4a3.723,3.723,0,0,1-1.156-2.147c-.137-.841-.7-1.19-1.661,0l-2.21,2.849c-.7.648-1.648.442-1.513-.43.325-1.521.488-3.041.812-4.56" transform="translate(-582.557 -70.438)"/><path class="e" d="M829.212,162.443a2.761,2.761,0,0,1,.517,0c.641.024,1.342-.149.338-.835a1,1,0,0,0-.53-.18c-2.928-.2-5.208,3.495-5.206,6.021.041,1.778,3.306,1.152,4.1-1.2.4-.47.81-.282,1.216,0a2.093,2.093,0,0,0,1.28,2.111c.107-.1.216-.192.32-.285a7.335,7.335,0,0,1-.383-4.334c.171-.646-.539-.765-.836-.228-.938,1.14-1.887,2.107-2.826,3.247-.966.868-1.708.075-.878-1.412.611-1.156,1.2-2.629,2.885-2.9" transform="translate(-596.757 -70.781)"/><path class="e" d="M830.966,162.131c-1.671.234-3.99,3.674-2.056,5.381.541.6,2.041.147,3.475-.728l.291.165a3.638,3.638,0,0,1-6.143.478c-1.887,1.86-4.634,2.05-4.877.851-.182-.743-.167-1.376-.346-2.119-.4-.3-.8-.482-1.139.141-1.6,2.777-3.792,3.087-4.114,1.774a8.759,8.759,0,0,1,1.742-5.833c.132-.323.979-.119.791.228a10.632,10.632,0,0,0-.881,4.284c-.006,1.392,1.468-.121,2.248-1.32.771-1.11,1.565-2.111,2.336-3.218.511-.71,1.838-.88,1.171,1.493-.9,3.253-.72,5.053,1.8,3.662,1.633-1.251,1.451-3.285,2.691-4.649,2.107-2.254,5.006-2.127,4.559.2-.282.611-.765.464-1.552-.789" transform="translate(-606.216 -71.102)"/><path class="e" d="M832.148,162.409c.554-1.32,1.915-.381,1.3,1.029a5.4,5.4,0,0,0-.378,4.078c.15.862-.357.989-.709.712-1.265-1.39-.981-3.358-.21-5.819" transform="translate(-588.617 -70.416)"/><path class="e" d="M833.278,160.036a.876.876,0,1,1-.842.876.861.861,0,0,1,.842-.876" transform="translate(-587.539 -72.187)"/><path class="e" d="M796.322,162.409c.551-1.32,1.913-.381,1.3,1.029a5.4,5.4,0,0,0-.378,4.078c.15.862-.359.989-.71.712-1.265-1.39-.981-3.358-.209-5.819" transform="translate(-629.361 -70.416)"/><path class="e" d="M797.452,160.036a.876.876,0,1,1-.842.876.859.859,0,0,1,.842-.876" transform="translate(-628.283 -72.187)"/><path class="e" d="M833.12,162.472q.407-1.15.816-2.3c.261-1.388-.65-1.451-1.293-.361q-.683,1.392-1.364,2.783a4.506,4.506,0,0,0-3.131.773,6.542,6.542,0,0,1,2.723.014,21.414,21.414,0,0,0-1.227,6.842c.092,1.277.782,1.082.953.061.637-3.513,1.353-6.624,2.454-6.963l2.387.061.066-.787Z" transform="translate(-592.415 -73.185)"/></svg>